# xmcd
#
# Track frame offsets: 
#        225
#        14496
#        29825
#        49360
#        59726
#        76377
#        97319
#        107676
#        120847
#        137476
#        148526
#        161639
#        172177
#        189180
#        203072
#        216042
#        236348
#        250026
#        263939
#        275145
#        296781
#
# Disc length: 4172 seconds
#
# Revision: 0
# Processed by: cddbd v1.5.2PL0 Copyright (c) Steve Scherf et al.
# Submitted via: ExactAudioCopyFreeDBPlugin 1.0
#
DISCID=44104915
DTITLE=Varios - Country Time - Misic-Men Joe
DYEAR=1900
DGENRE=Country
TTITLE0=Robbins Phillips - Noth To Alaska
TTITLE1=Millhous Von Tress - Achy Break Heart
TTITLE2=Sherrill Robbins - Stand By Your Man
TTITLE3=Nelson - On The Road Again
TTITLE4=Bynum Bowling - Lucille
TTITLE5=Gabriel - Intercity Linie Nr. 4
TTITLE6=Gibson Brown - Abilene
TTITLE7=Doll Bach - Arizona
TTITLE8=Williams - Jambalaya
TTITLE9=Giant Baum - Gold In The Mountains
TTITLE10=Acuff Gibson - Oh Lonesome Me
TTITLE11=Kristoffersen - Help Me Make It Through The Night
TTITLE12=Tillis Dill - Detroit City
TTITLE13=Grabowsky Bach - Ich möcht so gern Dave Dudley hörn
TTITLE14=Montgomery Green - Six Days On The Road
TTITLE15=Lacroix - El Paso
TTITLE16=Denver Danoff - Take Me Home Country Roads
TTITLE17=Weiss - Rhinestone Cowboy
TTITLE18=Kilgore Carter - Ring Of Fire
TTITLE19=Karner - Down By The Banks Of Ohio
TTITLE20=South Of The Border
EXTD=
EXTT0=
EXTT1=
EXTT2=
EXTT3=
EXTT4=
EXTT5=
EXTT6=
EXTT7=
EXTT8=
EXTT9=
EXTT10=
EXTT11=
EXTT12=
EXTT13=
EXTT14=
EXTT15=
EXTT16=
EXTT17=
EXTT18=
EXTT19=
EXTT20=
PLAYORDER=
